<?xml version="1.0" encoding="UTF-8" standalone="no"?>
<!DOCTYPE svg PUBLIC "-//W3C//DTD SVG 1.1//EN"
 "http://www.w3.org/Graphics/SVG/1.1/DTD/svg11.dtd">
<!-- Generated by graphviz version 2.42.3 (20191010.1750)
 -->
<!-- Title: %3 Pages: 1 -->
<svg width="5493pt" height="476pt"
 viewBox="0.00 0.00 5492.96 476.00" xmlns="http://www.w3.org/2000/svg" xmlns:xlink="http://www.w3.org/1999/xlink">
<g id="graph0" class="graph" transform="scale(1 1) rotate(0) translate(4 472)">
<title>%3</title>
<polygon fill="white" stroke="transparent" points="-4,4 -4,-472 5488.96,-472 5488.96,4 -4,4"/>
<!-- Body Code -->
<g id="node1" class="node">
<title>Body Code</title>
<ellipse fill="none" stroke="black" cx="5091.72" cy="-450" rx="50.3" ry="18"/>
<text text-anchor="middle" x="5091.72" y="-445.8" font-family="Times,serif" font-size="14.00">Body Code</text>
</g>
<!-- Energy -->
<g id="node2" class="node">
<title>Energy</title>
<ellipse fill="none" stroke="black" cx="2519.72" cy="-378" rx="35.48" ry="18"/>
<text text-anchor="middle" x="2519.72" y="-373.8" font-family="Times,serif" font-size="14.00">Energy</text>
</g>
<!-- Body Code&#45;&gt;Energy -->
<g id="edge1" class="edge">
<title>Body Code&#45;&gt;Energy</title>
<path fill="none" stroke="black" d="M5041.78,-447.64C4714.43,-438.73 2878.81,-388.77 2565.27,-380.24"/>
<polygon fill="black" stroke="black" points="2565.28,-376.74 2555.18,-379.97 2565.09,-383.74 2565.28,-376.74"/>
</g>
<!-- Circuit or System -->
<g id="node3" class="node">
<title>Circuit or System</title>
<ellipse fill="none" stroke="black" cx="4903.72" cy="-378" rx="72.5" ry="18"/>
<text text-anchor="middle" x="4903.72" y="-373.8" font-family="Times,serif" font-size="14.00">Circuit or System</text>
</g>
<!-- Body Code&#45;&gt;Circuit or System -->
<g id="edge2" class="edge">
<title>Body Code&#45;&gt;Circuit or System</title>
<path fill="none" stroke="black" d="M5058.11,-436.49C5028.5,-425.46 4985.04,-409.28 4951.76,-396.89"/>
<polygon fill="black" stroke="black" points="4952.82,-393.55 4942.23,-393.34 4950.38,-400.11 4952.82,-393.55"/>
</g>
<!-- Toxin -->
<g id="node4" class="node">
<title>Toxin</title>
<ellipse fill="none" stroke="black" cx="5024.72" cy="-378" rx="30.73" ry="18"/>
<text text-anchor="middle" x="5024.72" y="-373.8" font-family="Times,serif" font-size="14.00">Toxin</text>
</g>
<!-- Body Code&#45;&gt;Toxin -->
<g id="edge3" class="edge">
<title>Body Code&#45;&gt;Toxin</title>
<path fill="none" stroke="black" d="M5076.18,-432.76C5067.31,-423.5 5056.05,-411.73 5046.33,-401.58"/>
<polygon fill="black" stroke="black" points="5048.7,-398.99 5039.26,-394.19 5043.65,-403.83 5048.7,-398.99"/>
</g>
<!-- Nutrition or Lifestyle -->
<g id="node5" class="node">
<title>Nutrition or Lifestyle</title>
<ellipse fill="none" stroke="black" cx="5158.72" cy="-378" rx="85.5" ry="18"/>
<text text-anchor="middle" x="5158.72" y="-373.8" font-family="Times,serif" font-size="14.00">Nutrition or Lifestyle</text>
</g>
<!-- Body Code&#45;&gt;Nutrition or Lifestyle -->
<g id="edge4" class="edge">
<title>Body Code&#45;&gt;Nutrition or Lifestyle</title>
<path fill="none" stroke="black" d="M5107.26,-432.76C5115.56,-424.1 5125.94,-413.25 5135.2,-403.57"/>
<polygon fill="black" stroke="black" points="5137.95,-405.77 5142.33,-396.12 5132.89,-400.93 5137.95,-405.77"/>
</g>
<!-- Pathogen -->
<g id="node6" class="node">
<title>Pathogen</title>
<ellipse fill="none" stroke="black" cx="5305.72" cy="-378" rx="43.04" ry="18"/>
<text text-anchor="middle" x="5305.72" y="-373.8" font-family="Times,serif" font-size="14.00">Pathogen</text>
</g>
<!-- Body Code&#45;&gt;Pathogen -->
<g id="edge5" class="edge">
<title>Body Code&#45;&gt;Pathogen</title>
<path fill="none" stroke="black" d="M5127.54,-437.28C5164.94,-425.05 5223.59,-405.87 5263.29,-392.88"/>
<polygon fill="black" stroke="black" points="5264.53,-396.16 5272.95,-389.72 5262.36,-389.5 5264.53,-396.16"/>
</g>
<!-- Misalignment -->
<g id="node7" class="node">
<title>Misalignment</title>
<ellipse fill="none" stroke="black" cx="5425.72" cy="-378" rx="59.47" ry="18"/>
<text text-anchor="middle" x="5425.72" y="-373.8" font-family="Times,serif" font-size="14.00">Misalignment</text>
</g>
<!-- Body Code&#45;&gt;Misalignment -->
<g id="edge6" class="edge">
<title>Body Code&#45;&gt;Misalignment</title>
<path fill="none" stroke="black" d="M5135.63,-440.92C5188.48,-431.05 5279.84,-413.48 5357.72,-396 5362.37,-394.96 5367.2,-393.83 5372.03,-392.68"/>
<polygon fill="black" stroke="black" points="5373.01,-396.04 5381.9,-390.29 5371.36,-389.24 5373.01,-396.04"/>
</g>
<!-- Offensive -->
<g id="node8" class="node">
<title>Offensive</title>
<ellipse fill="none" stroke="black" cx="394.72" cy="-306" rx="44.64" ry="18"/>
<text text-anchor="middle" x="394.72" y="-301.8" font-family="Times,serif" font-size="14.00">Offensive</text>
</g>
<!-- Energy&#45;&gt;Offensive -->
<g id="edge7" class="edge">
<title>Energy&#45;&gt;Offensive</title>
<path fill="none" stroke="black" d="M2484.17,-375.83C2235.26,-367.63 754.59,-318.85 449.63,-308.81"/>
<polygon fill="black" stroke="black" points="449.39,-305.3 439.28,-308.47 449.16,-312.3 449.39,-305.3"/>
</g>
<!-- Mental -->
<g id="node9" class="node">
<title>Mental</title>
<ellipse fill="none" stroke="black" cx="986.72" cy="-306" rx="35.31" ry="18"/>
<text text-anchor="middle" x="986.72" y="-301.8" font-family="Times,serif" font-size="14.00">Mental</text>
</g>
<!-- Energy&#45;&gt;Mental -->
<g id="edge8" class="edge">
<title>Energy&#45;&gt;Mental</title>
<path fill="none" stroke="black" d="M2484.45,-375.39C2281.11,-366.1 1259.49,-319.46 1031.77,-309.06"/>
<polygon fill="black" stroke="black" points="1031.68,-305.55 1021.53,-308.59 1031.36,-312.54 1031.68,-305.55"/>
</g>
<!-- Post Traumatic -->
<g id="node10" class="node">
<title>Post Traumatic</title>
<ellipse fill="none" stroke="black" cx="1625.72" cy="-306" rx="63.36" ry="18"/>
<text text-anchor="middle" x="1625.72" y="-301.8" font-family="Times,serif" font-size="14.00">Post Traumatic</text>
</g>
<!-- Energy&#45;&gt;Post Traumatic -->
<g id="edge9" class="edge">
<title>Energy&#45;&gt;Post Traumatic</title>
<path fill="none" stroke="black" d="M2484.95,-374.28C2352.34,-363.89 1876.78,-326.66 1696.07,-312.51"/>
<polygon fill="black" stroke="black" points="1696.13,-309 1685.88,-311.71 1695.58,-315.98 1696.13,-309"/>
</g>
<!-- Reverberation -->
<g id="node11" class="node">
<title>Reverberation</title>
<ellipse fill="none" stroke="black" cx="2519.72" cy="-306" rx="60.39" ry="18"/>
<text text-anchor="middle" x="2519.72" y="-301.8" font-family="Times,serif" font-size="14.00">Reverberation</text>
</g>
<!-- Energy&#45;&gt;Reverberation -->
<g id="edge10" class="edge">
<title>Energy&#45;&gt;Reverberation</title>
<path fill="none" stroke="black" d="M2519.72,-359.7C2519.72,-351.98 2519.72,-342.71 2519.72,-334.11"/>
<polygon fill="black" stroke="black" points="2523.22,-334.1 2519.72,-324.1 2516.22,-334.1 2523.22,-334.1"/>
</g>
<!-- Allergy&#45;Intolerance -->
<g id="node12" class="node">
<title>Allergy&#45;Intolerance</title>
<ellipse fill="none" stroke="black" cx="3262.72" cy="-306" rx="79.86" ry="18"/>
<text text-anchor="middle" x="3262.72" y="-301.8" font-family="Times,serif" font-size="14.00">Allergy&#45;Intolerance</text>
</g>
<!-- Energy&#45;&gt;Allergy&#45;Intolerance -->
<g id="edge11" class="edge">
<title>Energy&#45;&gt;Allergy&#45;Intolerance</title>
<path fill="none" stroke="black" d="M2554.56,-373.72C2666.44,-363.18 3018.66,-329.99 3180.24,-314.77"/>
<polygon fill="black" stroke="black" points="3180.98,-318.22 3190.6,-313.79 3180.32,-311.25 3180.98,-318.22"/>
</g>
<!-- Emotional -->
<g id="node13" class="node">
<title>Emotional</title>
<ellipse fill="none" stroke="black" cx="3810.72" cy="-306" rx="46.9" ry="18"/>
<text text-anchor="middle" x="3810.72" y="-301.8" font-family="Times,serif" font-size="14.00">Emotional</text>
</g>
<!-- Energy&#45;&gt;Emotional -->
<g id="edge12" class="edge">
<title>Energy&#45;&gt;Emotional</title>
<path fill="none" stroke="black" d="M2554.92,-375.09C2732.94,-365.44 3534.22,-321.99 3754.52,-310.05"/>
<polygon fill="black" stroke="black" points="3754.77,-313.54 3764.56,-309.5 3754.39,-306.55 3754.77,-313.54"/>
</g>
<!-- Disconnection -->
<g id="node43" class="node">
<title>Disconnection</title>
<ellipse fill="none" stroke="black" cx="4641.72" cy="-306" rx="61.38" ry="18"/>
<text text-anchor="middle" x="4641.72" y="-301.8" font-family="Times,serif" font-size="14.00">Disconnection</text>
</g>
<!-- Circuit or System&#45;&gt;Disconnection -->
<g id="edge42" class="edge">
<title>Circuit or System&#45;&gt;Disconnection</title>
<path fill="none" stroke="black" d="M4856.28,-364.32C4810.84,-352.19 4742.4,-333.9 4695.09,-321.26"/>
<polygon fill="black" stroke="black" points="4695.9,-317.85 4685.33,-318.65 4694.09,-324.61 4695.9,-317.85"/>
</g>
<!-- System -->
<g id="node44" class="node">
<title>System</title>
<ellipse fill="none" stroke="black" cx="4756.72" cy="-306" rx="36.3" ry="18"/>
<text text-anchor="middle" x="4756.72" y="-301.8" font-family="Times,serif" font-size="14.00">System</text>
</g>
<!-- Circuit or System&#45;&gt;System -->
<g id="edge43" class="edge">
<title>Circuit or System&#45;&gt;System</title>
<path fill="none" stroke="black" d="M4871.82,-361.81C4848.12,-350.52 4815.8,-335.13 4791.45,-323.54"/>
<polygon fill="black" stroke="black" points="4792.74,-320.28 4782.21,-319.14 4789.73,-326.6 4792.74,-320.28"/>
</g>
<!-- Body Cycle or Rhythm -->
<g id="node45" class="node">
<title>Body Cycle or Rhythm</title>
<ellipse fill="none" stroke="black" cx="4903.72" cy="-306" rx="92.29" ry="18"/>
<text text-anchor="middle" x="4903.72" y="-301.8" font-family="Times,serif" font-size="14.00">Body Cycle or Rhythm</text>
</g>
<!-- Circuit or System&#45;&gt;Body Cycle or Rhythm -->
<g id="edge44" class="edge">
<title>Circuit or System&#45;&gt;Body Cycle or Rhythm</title>
<path fill="none" stroke="black" d="M4903.72,-359.7C4903.72,-351.98 4903.72,-342.71 4903.72,-334.11"/>
<polygon fill="black" stroke="black" points="4907.22,-334.1 4903.72,-324.1 4900.22,-334.1 4907.22,-334.1"/>
</g>
<!-- Organ -->
<g id="node46" class="node">
<title>Organ</title>
<ellipse fill="none" stroke="black" cx="5045.72" cy="-306" rx="32.1" ry="18"/>
<text text-anchor="middle" x="5045.72" y="-301.8" font-family="Times,serif" font-size="14.00">Organ</text>
</g>
<!-- Circuit or System&#45;&gt;Organ -->
<g id="edge45" class="edge">
<title>Circuit or System&#45;&gt;Organ</title>
<path fill="none" stroke="black" d="M4934.88,-361.64C4957.99,-350.25 4989.42,-334.76 5012.91,-323.18"/>
<polygon fill="black" stroke="black" points="5014.7,-326.2 5022.12,-318.63 5011.6,-319.92 5014.7,-326.2"/>
</g>
<!-- Gland -->
<g id="node47" class="node">
<title>Gland</title>
<ellipse fill="none" stroke="black" cx="5127.72" cy="-306" rx="31.94" ry="18"/>
<text text-anchor="middle" x="5127.72" y="-301.8" font-family="Times,serif" font-size="14.00">Gland</text>
</g>
<!-- Circuit or System&#45;&gt;Gland -->
<g id="edge46" class="edge">
<title>Circuit or System&#45;&gt;Gland</title>
<path fill="none" stroke="black" d="M4952.35,-364.5C4989.49,-354.57 5041.78,-339.77 5086.72,-324 5088.99,-323.2 5091.32,-322.35 5093.65,-321.46"/>
<polygon fill="black" stroke="black" points="5095.16,-324.63 5103.18,-317.7 5092.59,-318.12 5095.16,-324.63"/>
</g>
<!-- Energy Body -->
<g id="node48" class="node">
<title>Energy Body</title>
<ellipse fill="none" stroke="black" cx="5234.72" cy="-306" rx="56.73" ry="18"/>
<text text-anchor="middle" x="5234.72" y="-301.8" font-family="Times,serif" font-size="14.00">Energy Body</text>
</g>
<!-- Circuit or System&#45;&gt;Energy Body -->
<g id="edge47" class="edge">
<title>Circuit or System&#45;&gt;Energy Body</title>
<path fill="none" stroke="black" d="M4956.86,-365.74C4966.14,-363.8 4975.71,-361.83 4984.72,-360 5066.39,-343.44 5087.45,-342.4 5168.72,-324 5173.31,-322.96 5178.07,-321.83 5182.83,-320.67"/>
<polygon fill="black" stroke="black" points="5183.7,-324.06 5192.56,-318.25 5182.01,-317.27 5183.7,-324.06"/>
</g>
<!-- Curse -->
<g id="node14" class="node">
<title>Curse</title>
<ellipse fill="none" stroke="black" cx="354.72" cy="-234" rx="30.98" ry="18"/>
<text text-anchor="middle" x="354.72" y="-229.8" font-family="Times,serif" font-size="14.00">Curse</text>
</g>
<!-- Offensive&#45;&gt;Curse -->
<g id="edge13" class="edge">
<title>Offensive&#45;&gt;Curse</title>
<path fill="none" stroke="black" d="M385.04,-288.05C380.25,-279.68 374.38,-269.4 369.08,-260.13"/>
<polygon fill="black" stroke="black" points="372.04,-258.25 364.04,-251.31 365.96,-261.73 372.04,-258.25"/>
</g>
<!-- Entity -->
<g id="node15" class="node">
<title>Entity</title>
<ellipse fill="none" stroke="black" cx="434.72" cy="-234" rx="31.95" ry="18"/>
<text text-anchor="middle" x="434.72" y="-229.8" font-family="Times,serif" font-size="14.00">Entity</text>
</g>
<!-- Offensive&#45;&gt;Entity -->
<g id="edge14" class="edge">
<title>Offensive&#45;&gt;Entity</title>
<path fill="none" stroke="black" d="M404.4,-288.05C409.19,-279.68 415.06,-269.4 420.36,-260.13"/>
<polygon fill="black" stroke="black" points="423.48,-261.73 425.4,-251.31 417.4,-258.25 423.48,-261.73"/>
</g>
<!-- Cording -->
<g id="node16" class="node">
<title>Cording</title>
<ellipse fill="none" stroke="black" cx="523.72" cy="-234" rx="39.19" ry="18"/>
<text text-anchor="middle" x="523.72" y="-229.8" font-family="Times,serif" font-size="14.00">Cording</text>
</g>
<!-- Offensive&#45;&gt;Cording -->
<g id="edge15" class="edge">
<title>Offensive&#45;&gt;Cording</title>
<path fill="none" stroke="black" d="M420.21,-291.17C440.25,-280.29 468.35,-265.05 490.22,-253.18"/>
<polygon fill="black" stroke="black" points="492.04,-256.17 499.16,-248.33 488.7,-250.02 492.04,-256.17"/>
</g>
<!-- Post&#45;Hypnotic Suggestion -->
<g id="node17" class="node">
<title>Post&#45;Hypnotic Suggestion</title>
<ellipse fill="none" stroke="black" cx="102.72" cy="-234" rx="102.94" ry="18"/>
<text text-anchor="middle" x="102.72" y="-229.8" font-family="Times,serif" font-size="14.00">Post&#45;Hypnotic Suggestion</text>
</g>
<!-- Offensive&#45;&gt;Post&#45;Hypnotic Suggestion -->
<g id="edge16" class="edge">
<title>Offensive&#45;&gt;Post&#45;Hypnotic Suggestion</title>
<path fill="none" stroke="black" d="M357.15,-295.99C310.11,-284.72 228.69,-265.2 170.63,-251.28"/>
<polygon fill="black" stroke="black" points="171.33,-247.85 160.79,-248.92 169.7,-254.66 171.33,-247.85"/>
</g>
<!-- Saboteur -->
<g id="node18" class="node">
<title>Saboteur</title>
<ellipse fill="none" stroke="black" cx="264.72" cy="-234" rx="41.59" ry="18"/>
<text text-anchor="middle" x="264.72" y="-229.8" font-family="Times,serif" font-size="14.00">Saboteur</text>
</g>
<!-- Offensive&#45;&gt;Saboteur -->
<g id="edge17" class="edge">
<title>Offensive&#45;&gt;Saboteur</title>
<path fill="none" stroke="black" d="M369.04,-291.17C348.97,-280.36 320.88,-265.24 298.91,-253.41"/>
<polygon fill="black" stroke="black" points="300.37,-250.22 289.91,-248.56 297.05,-256.39 300.37,-250.22"/>
</g>
<!-- No Will to... -->
<g id="node19" class="node">
<title>No Will to...</title>
<ellipse fill="none" stroke="black" cx="910.72" cy="-234" rx="54.12" ry="18"/>
<text text-anchor="middle" x="910.72" y="-229.8" font-family="Times,serif" font-size="14.00">No Will to...</text>
</g>
<!-- Mental&#45;&gt;No Will to... -->
<g id="edge18" class="edge">
<title>Mental&#45;&gt;No Will to...</title>
<path fill="none" stroke="black" d="M970.23,-289.81C960.16,-280.53 947.08,-268.48 935.74,-258.05"/>
<polygon fill="black" stroke="black" points="937.96,-255.33 928.24,-251.13 933.22,-260.48 937.96,-255.33"/>
</g>
<!-- Broadcast Message -->
<g id="node20" class="node">
<title>Broadcast Message</title>
<ellipse fill="none" stroke="black" cx="1061.72" cy="-234" rx="78.74" ry="18"/>
<text text-anchor="middle" x="1061.72" y="-229.8" font-family="Times,serif" font-size="14.00">Broadcast Message</text>
</g>
<!-- Mental&#45;&gt;Broadcast Message -->
<g id="edge19" class="edge">
<title>Mental&#45;&gt;Broadcast Message</title>
<path fill="none" stroke="black" d="M1003,-289.81C1012.8,-280.66 1025.48,-268.82 1036.55,-258.49"/>
<polygon fill="black" stroke="black" points="1038.98,-261.01 1043.91,-251.63 1034.21,-255.89 1038.98,-261.01"/>
</g>
<!-- Will to... -->
<g id="node21" class="node">
<title>Will to...</title>
<ellipse fill="none" stroke="black" cx="1199.72" cy="-234" rx="41.4" ry="18"/>
<text text-anchor="middle" x="1199.72" y="-229.8" font-family="Times,serif" font-size="14.00">Will to...</text>
</g>
<!-- Mental&#45;&gt;Will to... -->
<g id="edge20" class="edge">
<title>Mental&#45;&gt;Will to...</title>
<path fill="none" stroke="black" d="M1015.61,-295.73C1048.23,-285.25 1102.85,-267.59 1149.72,-252 1152.63,-251.03 1155.63,-250.03 1158.65,-249.01"/>
<polygon fill="black" stroke="black" points="1159.92,-252.28 1168.27,-245.77 1157.68,-245.65 1159.92,-252.28"/>
</g>
<!-- Programming -->
<g id="node22" class="node">
<title>Programming</title>
<ellipse fill="none" stroke="black" cx="639.72" cy="-234" rx="58.98" ry="18"/>
<text text-anchor="middle" x="639.72" y="-229.8" font-family="Times,serif" font-size="14.00">Programming</text>
</g>
<!-- Mental&#45;&gt;Programming -->
<g id="edge21" class="edge">
<title>Mental&#45;&gt;Programming</title>
<path fill="none" stroke="black" d="M953.95,-299.4C901.69,-290.33 796.33,-271.47 707.72,-252 702.99,-250.96 698.09,-249.83 693.19,-248.67"/>
<polygon fill="black" stroke="black" points="693.71,-245.2 683.17,-246.25 692.07,-252 693.71,-245.2"/>
</g>
<!-- Memory Field -->
<g id="node23" class="node">
<title>Memory Field</title>
<ellipse fill="none" stroke="black" cx="777.72" cy="-234" rx="60.9" ry="18"/>
<text text-anchor="middle" x="777.72" y="-229.8" font-family="Times,serif" font-size="14.00">Memory Field</text>
</g>
<!-- Mental&#45;&gt;Memory Field -->
<g id="edge22" class="edge">
<title>Mental&#45;&gt;Memory Field</title>
<path fill="none" stroke="black" d="M958.1,-295.41C924.15,-284.04 867.02,-264.91 826.15,-251.22"/>
<polygon fill="black" stroke="black" points="827.25,-247.9 816.66,-248.04 825.03,-254.54 827.25,-247.9"/>
</g>
<!-- Physical Trauma -->
<g id="node27" class="node">
<title>Physical Trauma</title>
<ellipse fill="none" stroke="black" cx="1328.72" cy="-234" rx="69.14" ry="18"/>
<text text-anchor="middle" x="1328.72" y="-229.8" font-family="Times,serif" font-size="14.00">Physical Trauma</text>
</g>
<!-- Post Traumatic&#45;&gt;Physical Trauma -->
<g id="edge26" class="edge">
<title>Post Traumatic&#45;&gt;Physical Trauma</title>
<path fill="none" stroke="black" d="M1578.66,-293.91C1527.05,-281.74 1444.12,-262.2 1388.08,-248.99"/>
<polygon fill="black" stroke="black" points="1388.82,-245.57 1378.28,-246.68 1387.21,-252.38 1388.82,-245.57"/>
</g>
<!-- Physical&#45;Emotional Shock -->
<g id="node28" class="node">
<title>Physical&#45;Emotional Shock</title>
<ellipse fill="none" stroke="black" cx="1520.72" cy="-234" rx="104.36" ry="18"/>
<text text-anchor="middle" x="1520.72" y="-229.8" font-family="Times,serif" font-size="14.00">Physical&#45;Emotional Shock</text>
</g>
<!-- Post Traumatic&#45;&gt;Physical&#45;Emotional Shock -->
<g id="edge27" class="edge">
<title>Post Traumatic&#45;&gt;Physical&#45;Emotional Shock</title>
<path fill="none" stroke="black" d="M1601.9,-289.12C1587.7,-279.65 1569.48,-267.5 1553.89,-257.11"/>
<polygon fill="black" stroke="black" points="1555.81,-254.19 1545.55,-251.55 1551.93,-260.01 1555.81,-254.19"/>
</g>
<!-- Recovery Interference -->
<g id="node29" class="node">
<title>Recovery Interference</title>
<ellipse fill="none" stroke="black" cx="1731.72" cy="-234" rx="88.82" ry="18"/>
<text text-anchor="middle" x="1731.72" y="-229.8" font-family="Times,serif" font-size="14.00">Recovery Interference</text>
</g>
<!-- Post Traumatic&#45;&gt;Recovery Interference -->
<g id="edge28" class="edge">
<title>Post Traumatic&#45;&gt;Recovery Interference</title>
<path fill="none" stroke="black" d="M1649.51,-289.29C1663.93,-279.77 1682.55,-267.47 1698.42,-256.99"/>
<polygon fill="black" stroke="black" points="1700.49,-259.82 1706.91,-251.39 1696.63,-253.98 1700.49,-259.82"/>
</g>
<!-- Seeking Heart Energy -->
<g id="node30" class="node">
<title>Seeking Heart Energy</title>
<ellipse fill="none" stroke="black" cx="2589.72" cy="-234" rx="88.08" ry="18"/>
<text text-anchor="middle" x="2589.72" y="-229.8" font-family="Times,serif" font-size="14.00">Seeking Heart Energy</text>
</g>
<!-- Reverberation&#45;&gt;Seeking Heart Energy -->
<g id="edge29" class="edge">
<title>Reverberation&#45;&gt;Seeking Heart Energy</title>
<path fill="none" stroke="black" d="M2536.31,-288.41C2545.07,-279.65 2555.99,-268.73 2565.66,-259.06"/>
<polygon fill="black" stroke="black" points="2568.17,-261.5 2572.77,-251.96 2563.22,-256.55 2568.17,-261.5"/>
</g>
<!-- Current Symptom -->
<g id="node31" class="node">
<title>Current Symptom</title>
<ellipse fill="none" stroke="black" cx="2769.72" cy="-234" rx="73.96" ry="18"/>
<text text-anchor="middle" x="2769.72" y="-229.8" font-family="Times,serif" font-size="14.00">Current Symptom</text>
</g>
<!-- Reverberation&#45;&gt;Current Symptom -->
<g id="edge30" class="edge">
<title>Reverberation&#45;&gt;Current Symptom</title>
<path fill="none" stroke="black" d="M2562.13,-293.13C2603.79,-281.46 2667.61,-263.59 2713.48,-250.75"/>
<polygon fill="black" stroke="black" points="2714.59,-254.07 2723.28,-248 2712.7,-247.33 2714.59,-254.07"/>
</g>
<!-- Sickness Memory -->
<g id="node32" class="node">
<title>Sickness Memory</title>
<ellipse fill="none" stroke="black" cx="2934.72" cy="-234" rx="73.95" ry="18"/>
<text text-anchor="middle" x="2934.72" y="-229.8" font-family="Times,serif" font-size="14.00">Sickness Memory</text>
</g>
<!-- Reverberation&#45;&gt;Sickness Memory -->
<g id="edge31" class="edge">
<title>Reverberation&#45;&gt;Sickness Memory</title>
<path fill="none" stroke="black" d="M2572.62,-297.36C2638.42,-287.67 2754.11,-270.06 2852.72,-252 2858.58,-250.93 2864.67,-249.76 2870.76,-248.56"/>
<polygon fill="black" stroke="black" points="2871.86,-251.91 2880.98,-246.52 2870.49,-245.05 2871.86,-251.91"/>
</g>
<!-- Organ Communication -->
<g id="node33" class="node">
<title>Organ Communication</title>
<ellipse fill="none" stroke="black" cx="1929.72" cy="-234" rx="91.5" ry="18"/>
<text text-anchor="middle" x="1929.72" y="-229.8" font-family="Times,serif" font-size="14.00">Organ Communication</text>
</g>
<!-- Reverberation&#45;&gt;Organ Communication -->
<g id="edge32" class="edge">
<title>Reverberation&#45;&gt;Organ Communication</title>
<path fill="none" stroke="black" d="M2462.62,-299.96C2371.08,-291.62 2185.88,-273.7 2029.72,-252 2021.57,-250.87 2013.07,-249.58 2004.61,-248.24"/>
<polygon fill="black" stroke="black" points="2005.15,-244.78 1994.72,-246.64 2004.03,-251.69 2005.15,-244.78"/>
</g>
<!-- Emotional Reverberation (formerly Resonance) -->
<g id="node34" class="node">
<title>Emotional Reverberation (formerly Resonance)</title>
<ellipse fill="none" stroke="black" cx="2217.72" cy="-234" rx="178.61" ry="18"/>
<text text-anchor="middle" x="2217.72" y="-229.8" font-family="Times,serif" font-size="14.00">Emotional Reverberation (formerly Resonance)</text>
</g>
<!-- Reverberation&#45;&gt;Emotional Reverberation (formerly Resonance) -->
<g id="edge33" class="edge">
<title>Reverberation&#45;&gt;Emotional Reverberation (formerly Resonance)</title>
<path fill="none" stroke="black" d="M2473.53,-294.29C2426.22,-283.33 2351.83,-266.08 2295.44,-253.01"/>
<polygon fill="black" stroke="black" points="2296.02,-249.56 2285.49,-250.71 2294.44,-256.37 2296.02,-249.56"/>
</g>
<!-- Miasm -->
<g id="node35" class="node">
<title>Miasm</title>
<ellipse fill="none" stroke="black" cx="2448.72" cy="-234" rx="34.85" ry="18"/>
<text text-anchor="middle" x="2448.72" y="-229.8" font-family="Times,serif" font-size="14.00">Miasm</text>
</g>
<!-- Reverberation&#45;&gt;Miasm -->
<g id="edge34" class="edge">
<title>Reverberation&#45;&gt;Miasm</title>
<path fill="none" stroke="black" d="M2502.9,-288.41C2493.61,-279.26 2481.95,-267.76 2471.83,-257.78"/>
<polygon fill="black" stroke="black" points="2474.03,-255.04 2464.45,-250.51 2469.12,-260.02 2474.03,-255.04"/>
</g>
<!-- Idea Intolerance -->
<g id="node36" class="node">
<title>Idea Intolerance</title>
<ellipse fill="none" stroke="black" cx="3557.72" cy="-234" rx="67.11" ry="18"/>
<text text-anchor="middle" x="3557.72" y="-229.8" font-family="Times,serif" font-size="14.00">Idea Intolerance</text>
</g>
<!-- Allergy&#45;Intolerance&#45;&gt;Idea Intolerance -->
<g id="edge35" class="edge">
<title>Allergy&#45;Intolerance&#45;&gt;Idea Intolerance</title>
<path fill="none" stroke="black" d="M3315.46,-292.49C3367,-280.26 3445.29,-261.68 3498.84,-248.97"/>
<polygon fill="black" stroke="black" points="3499.94,-252.31 3508.87,-246.59 3498.33,-245.5 3499.94,-252.31"/>
</g>
<!-- Physical Intolerance -->
<g id="node37" class="node">
<title>Physical Intolerance</title>
<ellipse fill="none" stroke="black" cx="3108.72" cy="-234" rx="82.11" ry="18"/>
<text text-anchor="middle" x="3108.72" y="-229.8" font-family="Times,serif" font-size="14.00">Physical Intolerance</text>
</g>
<!-- Allergy&#45;Intolerance&#45;&gt;Physical Intolerance -->
<g id="edge36" class="edge">
<title>Allergy&#45;Intolerance&#45;&gt;Physical Intolerance</title>
<path fill="none" stroke="black" d="M3228.93,-289.64C3206.34,-279.37 3176.41,-265.77 3152.07,-254.7"/>
<polygon fill="black" stroke="black" points="3153.26,-251.4 3142.7,-250.45 3150.36,-257.77 3153.26,-251.4"/>
</g>
<!-- Idea Allergy -->
<g id="node38" class="node">
<title>Idea Allergy</title>
<ellipse fill="none" stroke="black" cx="3262.72" cy="-234" rx="53.82" ry="18"/>
<text text-anchor="middle" x="3262.72" y="-229.8" font-family="Times,serif" font-size="14.00">Idea Allergy</text>
</g>
<!-- Allergy&#45;Intolerance&#45;&gt;Idea Allergy -->
<g id="edge37" class="edge">
<title>Allergy&#45;Intolerance&#45;&gt;Idea Allergy</title>
<path fill="none" stroke="black" d="M3262.72,-287.7C3262.72,-279.98 3262.72,-270.71 3262.72,-262.11"/>
<polygon fill="black" stroke="black" points="3266.22,-262.1 3262.72,-252.1 3259.22,-262.1 3266.22,-262.1"/>
</g>
<!-- Physical Allergy -->
<g id="node39" class="node">
<title>Physical Allergy</title>
<ellipse fill="none" stroke="black" cx="3403.72" cy="-234" rx="68.82" ry="18"/>
<text text-anchor="middle" x="3403.72" y="-229.8" font-family="Times,serif" font-size="14.00">Physical Allergy</text>
</g>
<!-- Allergy&#45;Intolerance&#45;&gt;Physical Allergy -->
<g id="edge38" class="edge">
<title>Allergy&#45;Intolerance&#45;&gt;Physical Allergy</title>
<path fill="none" stroke="black" d="M3294.36,-289.29C3314.97,-279.06 3342.01,-265.64 3364.05,-254.7"/>
<polygon fill="black" stroke="black" points="3365.75,-257.76 3373.15,-250.18 3362.64,-251.49 3365.75,-257.76"/>
</g>
<!-- Heart&#45;Wall Emotion -->
<g id="node40" class="node">
<title>Heart&#45;Wall Emotion</title>
<ellipse fill="none" stroke="black" cx="3724.72" cy="-234" rx="81.69" ry="18"/>
<text text-anchor="middle" x="3724.72" y="-229.8" font-family="Times,serif" font-size="14.00">Heart&#45;Wall Emotion</text>
</g>
<!-- Emotional&#45;&gt;Heart&#45;Wall Emotion -->
<g id="edge39" class="edge">
<title>Emotional&#45;&gt;Heart&#45;Wall Emotion</title>
<path fill="none" stroke="black" d="M3791.64,-289.46C3780.27,-280.21 3765.63,-268.3 3752.95,-257.98"/>
<polygon fill="black" stroke="black" points="3754.92,-255.07 3744.95,-251.47 3750.5,-260.49 3754.92,-255.07"/>
</g>
<!-- Trapped Emotion -->
<g id="node41" class="node">
<title>Trapped Emotion</title>
<ellipse fill="none" stroke="black" cx="3896.72" cy="-234" rx="71.87" ry="18"/>
<text text-anchor="middle" x="3896.72" y="-229.8" font-family="Times,serif" font-size="14.00">Trapped Emotion</text>
</g>
<!-- Emotional&#45;&gt;Trapped Emotion -->
<g id="edge40" class="edge">
<title>Emotional&#45;&gt;Trapped Emotion</title>
<path fill="none" stroke="black" d="M3829.81,-289.46C3841.17,-280.21 3855.81,-268.3 3868.49,-257.98"/>
<polygon fill="black" stroke="black" points="3870.94,-260.49 3876.49,-251.47 3866.53,-255.07 3870.94,-260.49"/>
</g>
<!-- Compound (old: Psychic Trauma) -->
<g id="node42" class="node">
<title>Compound (old: Psychic Trauma)</title>
<ellipse fill="none" stroke="black" cx="4116.72" cy="-234" rx="130.48" ry="18"/>
<text text-anchor="middle" x="4116.72" y="-229.8" font-family="Times,serif" font-size="14.00">Compound (old: Psychic Trauma)</text>
</g>
<!-- Emotional&#45;&gt;Compound (old: Psychic Trauma) -->
<g id="edge41" class="edge">
<title>Emotional&#45;&gt;Compound (old: Psychic Trauma)</title>
<path fill="none" stroke="black" d="M3850.1,-295.99C3898.57,-284.9 3981.9,-265.84 4042.52,-251.97"/>
<polygon fill="black" stroke="black" points="4043.46,-255.35 4052.42,-249.71 4041.89,-248.53 4043.46,-255.35"/>
</g>
<!-- Despair Anchor -->
<g id="node24" class="node">
<title>Despair Anchor</title>
<ellipse fill="none" stroke="black" cx="519.72" cy="-162" rx="65.72" ry="18"/>
<text text-anchor="middle" x="519.72" y="-157.8" font-family="Times,serif" font-size="14.00">Despair Anchor</text>
</g>
<!-- Programming&#45;&gt;Despair Anchor -->
<g id="edge23" class="edge">
<title>Programming&#45;&gt;Despair Anchor</title>
<path fill="none" stroke="black" d="M613.68,-217.81C596.62,-207.86 574.1,-194.72 555.38,-183.8"/>
<polygon fill="black" stroke="black" points="556.94,-180.66 546.54,-178.64 553.41,-186.71 556.94,-180.66"/>
</g>
<!-- Images -->
<g id="node25" class="node">
<title>Images</title>
<ellipse fill="none" stroke="black" cx="639.72" cy="-162" rx="35.79" ry="18"/>
<text text-anchor="middle" x="639.72" y="-157.8" font-family="Times,serif" font-size="14.00">Images</text>
</g>
<!-- Programming&#45;&gt;Images -->
<g id="edge24" class="edge">
<title>Programming&#45;&gt;Images</title>
<path fill="none" stroke="black" d="M639.72,-215.7C639.72,-207.98 639.72,-198.71 639.72,-190.11"/>
<polygon fill="black" stroke="black" points="643.22,-190.1 639.72,-180.1 636.22,-190.1 643.22,-190.1"/>
</g>
<!-- Belief Code (Formerly T3) -->
<g id="node26" class="node">
<title>Belief Code (Formerly T3)</title>
<ellipse fill="none" stroke="black" cx="798.72" cy="-162" rx="105.47" ry="18"/>
<text text-anchor="middle" x="798.72" y="-157.8" font-family="Times,serif" font-size="14.00">Belief Code (Formerly T3)</text>
</g>
<!-- Programming&#45;&gt;Belief Code (Formerly T3) -->
<g id="edge25" class="edge">
<title>Programming&#45;&gt;Belief Code (Formerly T3)</title>
<path fill="none" stroke="black" d="M671.9,-218.83C695.25,-208.55 727.18,-194.5 753.15,-183.06"/>
<polygon fill="black" stroke="black" points="754.69,-186.21 762.43,-178.98 751.86,-179.8 754.69,-186.21"/>
</g>
<!-- Pregnancy&#45;Related -->
<g id="node49" class="node">
<title>Pregnancy&#45;Related</title>
<ellipse fill="none" stroke="black" cx="4715.72" cy="-234" rx="77.27" ry="18"/>
<text text-anchor="middle" x="4715.72" y="-229.8" font-family="Times,serif" font-size="14.00">Pregnancy&#45;Related</text>
</g>
<!-- Disconnection&#45;&gt;Pregnancy&#45;Related -->
<g id="edge48" class="edge">
<title>Disconnection&#45;&gt;Pregnancy&#45;Related</title>
<path fill="none" stroke="black" d="M4659.26,-288.41C4668.59,-279.58 4680.23,-268.57 4690.52,-258.84"/>
<polygon fill="black" stroke="black" points="4693.19,-261.13 4698.05,-251.71 4688.38,-256.04 4693.19,-261.13"/>
</g>
<!-- Physical Disconnection -->
<g id="node50" class="node">
<title>Physical Disconnection</title>
<ellipse fill="none" stroke="black" cx="4904.72" cy="-234" rx="93.24" ry="18"/>
<text text-anchor="middle" x="4904.72" y="-229.8" font-family="Times,serif" font-size="14.00">Physical Disconnection</text>
</g>
<!-- Disconnection&#45;&gt;Physical Disconnection -->
<g id="edge49" class="edge">
<title>Disconnection&#45;&gt;Physical Disconnection</title>
<path fill="none" stroke="black" d="M4685.45,-293.36C4728.35,-281.94 4794.21,-264.41 4842.55,-251.55"/>
<polygon fill="black" stroke="black" points="4843.52,-254.91 4852.28,-248.96 4841.72,-248.15 4843.52,-254.91"/>
</g>
<!-- Spirit Out Of Body -->
<g id="node51" class="node">
<title>Spirit Out Of Body</title>
<ellipse fill="none" stroke="black" cx="5094.72" cy="-234" rx="78.31" ry="18"/>
<text text-anchor="middle" x="5094.72" y="-229.8" font-family="Times,serif" font-size="14.00">Spirit Out Of Body</text>
</g>
<!-- Disconnection&#45;&gt;Spirit Out Of Body -->
<g id="edge50" class="edge">
<title>Disconnection&#45;&gt;Spirit Out Of Body</title>
<path fill="none" stroke="black" d="M4685.99,-293.42C4694.49,-291.43 4703.35,-289.52 4711.72,-288 4841.67,-264.37 4876.24,-272.54 5006.72,-252 5013.54,-250.93 5020.63,-249.72 5027.71,-248.45"/>
<polygon fill="black" stroke="black" points="5028.81,-251.8 5038.02,-246.55 5027.55,-244.92 5028.81,-251.8"/>
</g>
<!-- Spirit/Physical Disconnection -->
<g id="node52" class="node">
<title>Spirit/Physical Disconnection</title>
<ellipse fill="none" stroke="black" cx="4380.72" cy="-234" rx="115.46" ry="18"/>
<text text-anchor="middle" x="4380.72" y="-229.8" font-family="Times,serif" font-size="14.00">Spirit/Physical Disconnection</text>
</g>
<!-- Disconnection&#45;&gt;Spirit/Physical Disconnection -->
<g id="edge51" class="edge">
<title>Disconnection&#45;&gt;Spirit/Physical Disconnection</title>
<path fill="none" stroke="black" d="M4598.04,-293.28C4556.58,-282.16 4493.73,-265.31 4446.27,-252.58"/>
<polygon fill="black" stroke="black" points="4446.95,-249.14 4436.38,-249.93 4445.14,-255.9 4446.95,-249.14"/>
</g>
<!-- Spirit Break -->
<g id="node53" class="node">
<title>Spirit Break</title>
<ellipse fill="none" stroke="black" cx="4567.72" cy="-234" rx="53.18" ry="18"/>
<text text-anchor="middle" x="4567.72" y="-229.8" font-family="Times,serif" font-size="14.00">Spirit Break</text>
</g>
<!-- Disconnection&#45;&gt;Spirit Break -->
<g id="edge52" class="edge">
<title>Disconnection&#45;&gt;Spirit Break</title>
<path fill="none" stroke="black" d="M4624.18,-288.41C4614.62,-279.37 4602.64,-268.03 4592.17,-258.13"/>
<polygon fill="black" stroke="black" points="4594.55,-255.56 4584.88,-251.23 4589.74,-260.64 4594.55,-255.56"/>
</g>
<!-- Mother&#39;s Brain -->
<g id="node54" class="node">
<title>Mother&#39;s Brain</title>
<ellipse fill="none" stroke="black" cx="4571.72" cy="-162" rx="63.07" ry="18"/>
<text text-anchor="middle" x="4571.72" y="-157.8" font-family="Times,serif" font-size="14.00">Mother&#39;s Brain</text>
</g>
<!-- Pregnancy&#45;Related&#45;&gt;Mother&#39;s Brain -->
<g id="edge53" class="edge">
<title>Pregnancy&#45;Related&#45;&gt;Mother&#39;s Brain</title>
<path fill="none" stroke="black" d="M4683.76,-217.46C4662.35,-207.06 4634.02,-193.28 4611.2,-182.19"/>
<polygon fill="black" stroke="black" points="4612.64,-179 4602.11,-177.77 4609.58,-185.29 4612.64,-179"/>
</g>
<!-- Mother&#39;s Body -->
<g id="node55" class="node">
<title>Mother&#39;s Body</title>
<ellipse fill="none" stroke="black" cx="4715.72" cy="-162" rx="62.6" ry="18"/>
<text text-anchor="middle" x="4715.72" y="-157.8" font-family="Times,serif" font-size="14.00">Mother&#39;s Body</text>
</g>
<!-- Pregnancy&#45;Related&#45;&gt;Mother&#39;s Body -->
<g id="edge54" class="edge">
<title>Pregnancy&#45;Related&#45;&gt;Mother&#39;s Body</title>
<path fill="none" stroke="black" d="M4715.72,-215.7C4715.72,-207.98 4715.72,-198.71 4715.72,-190.11"/>
<polygon fill="black" stroke="black" points="4719.22,-190.1 4715.72,-180.1 4712.22,-190.1 4719.22,-190.1"/>
</g>
<!-- Mother&#39;s Spirit -->
<g id="node56" class="node">
<title>Mother&#39;s Spirit</title>
<ellipse fill="none" stroke="black" cx="4859.72" cy="-162" rx="63.08" ry="18"/>
<text text-anchor="middle" x="4859.72" y="-157.8" font-family="Times,serif" font-size="14.00">Mother&#39;s Spirit</text>
</g>
<!-- Pregnancy&#45;Related&#45;&gt;Mother&#39;s Spirit -->
<g id="edge55" class="edge">
<title>Pregnancy&#45;Related&#45;&gt;Mother&#39;s Spirit</title>
<path fill="none" stroke="black" d="M4747.68,-217.46C4769.09,-207.06 4797.43,-193.28 4820.25,-182.19"/>
<polygon fill="black" stroke="black" points="4821.87,-185.29 4829.33,-177.77 4818.81,-179 4821.87,-185.29"/>
</g>
<!-- Spirit Fetus -->
<g id="node57" class="node">
<title>Spirit Fetus</title>
<ellipse fill="none" stroke="black" cx="4649.72" cy="-90" rx="51.28" ry="18"/>
<text text-anchor="middle" x="4649.72" y="-85.8" font-family="Times,serif" font-size="14.00">Spirit Fetus</text>
</g>
<!-- Mother&#39;s Brain&#45;&gt;Spirit Fetus -->
<g id="edge56" class="edge">
<title>Mother&#39;s Brain&#45;&gt;Spirit Fetus</title>
<path fill="none" stroke="black" d="M4590.21,-144.41C4600.36,-135.3 4613.1,-123.87 4624.19,-113.92"/>
<polygon fill="black" stroke="black" points="4626.8,-116.27 4631.91,-106.99 4622.13,-111.06 4626.8,-116.27"/>
</g>
<!-- Physical Fetus -->
<g id="node58" class="node">
<title>Physical Fetus</title>
<ellipse fill="none" stroke="black" cx="4780.72" cy="-90" rx="61.4" ry="18"/>
<text text-anchor="middle" x="4780.72" y="-85.8" font-family="Times,serif" font-size="14.00">Physical Fetus</text>
</g>
<!-- Mother&#39;s Brain&#45;&gt;Physical Fetus -->
<g id="edge57" class="edge">
<title>Mother&#39;s Brain&#45;&gt;Physical Fetus</title>
<path fill="none" stroke="black" d="M4611.03,-147.83C4645.44,-136.31 4695.55,-119.53 4732.4,-107.18"/>
<polygon fill="black" stroke="black" points="4733.57,-110.48 4741.94,-103.99 4731.35,-103.85 4733.57,-110.48"/>
</g>
<!-- Mother&#39;s Body&#45;&gt;Spirit Fetus -->
<g id="edge62" class="edge">
<title>Mother&#39;s Body&#45;&gt;Spirit Fetus</title>
<path fill="none" stroke="black" d="M4700.08,-144.41C4691.78,-135.61 4681.43,-124.63 4672.27,-114.92"/>
<polygon fill="black" stroke="black" points="4674.66,-112.34 4665.25,-107.47 4669.56,-117.15 4674.66,-112.34"/>
</g>
<!-- Mother&#39;s Body&#45;&gt;Physical Fetus -->
<g id="edge63" class="edge">
<title>Mother&#39;s Body&#45;&gt;Physical Fetus</title>
<path fill="none" stroke="black" d="M4731.13,-144.41C4739.3,-135.61 4749.5,-124.63 4758.51,-114.92"/>
<polygon fill="black" stroke="black" points="4761.19,-117.18 4765.43,-107.47 4756.06,-112.42 4761.19,-117.18"/>
</g>
<!-- Mother&#39;s Spirit&#45;&gt;Spirit Fetus -->
<g id="edge68" class="edge">
<title>Mother&#39;s Spirit&#45;&gt;Spirit Fetus</title>
<path fill="none" stroke="black" d="M4820.22,-147.83C4784.67,-135.98 4732.43,-118.57 4695.15,-106.14"/>
<polygon fill="black" stroke="black" points="4696.14,-102.78 4685.54,-102.94 4693.92,-109.42 4696.14,-102.78"/>
</g>
<!-- Mother&#39;s Spirit&#45;&gt;Physical Fetus -->
<g id="edge69" class="edge">
<title>Mother&#39;s Spirit&#45;&gt;Physical Fetus</title>
<path fill="none" stroke="black" d="M4841.4,-144.76C4831.1,-135.64 4818.08,-124.1 4806.74,-114.06"/>
<polygon fill="black" stroke="black" points="4809.02,-111.4 4799.22,-107.39 4804.38,-116.64 4809.02,-111.4"/>
</g>
<!-- Fetus -->
<g id="node59" class="node">
<title>Fetus</title>
<ellipse fill="none" stroke="black" cx="4632.72" cy="-18" rx="29.04" ry="18"/>
<text text-anchor="middle" x="4632.72" y="-13.8" font-family="Times,serif" font-size="14.00">Fetus</text>
</g>
<!-- Physical Fetus&#45;&gt;Fetus -->
<g id="edge58" class="edge">
<title>Physical Fetus&#45;&gt;Fetus</title>
<path fill="none" stroke="black" d="M4742.06,-75.83C4716,-64.97 4682.76,-49.44 4659.5,-37.36"/>
<polygon fill="black" stroke="black" points="4660.98,-34.18 4650.5,-32.58 4657.7,-40.36 4660.98,-34.18"/>
</g>
<!-- Physical Fetus&#45;&gt;Fetus -->
<g id="edge64" class="edge">
<title>Physical Fetus&#45;&gt;Fetus</title>
<path fill="none" stroke="black" d="M4749.7,-74.33C4724.74,-62.52 4689.81,-46 4664.63,-34.09"/>
<polygon fill="black" stroke="black" points="4666.03,-30.88 4655.49,-29.77 4663.04,-37.21 4666.03,-30.88"/>
</g>
<!-- Physical Fetus&#45;&gt;Fetus -->
<g id="edge70" class="edge">
<title>Physical Fetus&#45;&gt;Fetus</title>
<path fill="none" stroke="black" d="M4758.66,-73.12C4734.46,-60.27 4696.46,-42.47 4668.19,-30.85"/>
<polygon fill="black" stroke="black" points="4669.22,-27.49 4658.64,-27.01 4666.61,-33.98 4669.22,-27.49"/>
</g>
<!-- Placenta -->
<g id="node60" class="node">
<title>Placenta</title>
<ellipse fill="none" stroke="black" cx="4719.72" cy="-18" rx="40.12" ry="18"/>
<text text-anchor="middle" x="4719.72" y="-13.8" font-family="Times,serif" font-size="14.00">Placenta</text>
</g>
<!-- Physical Fetus&#45;&gt;Placenta -->
<g id="edge59" class="edge">
<title>Physical Fetus&#45;&gt;Placenta</title>
<path fill="none" stroke="black" d="M4755.74,-73.46C4746.21,-64.87 4736.19,-53.97 4728.65,-44.19"/>
<polygon fill="black" stroke="black" points="4731.42,-42.04 4722.74,-35.96 4725.74,-46.12 4731.42,-42.04"/>
</g>
<!-- Physical Fetus&#45;&gt;Placenta -->
<g id="edge65" class="edge">
<title>Physical Fetus&#45;&gt;Placenta</title>
<path fill="none" stroke="black" d="M4766.27,-72.41C4758.56,-63.57 4748.94,-52.53 4740.45,-42.79"/>
<polygon fill="black" stroke="black" points="4742.86,-40.23 4733.65,-34.99 4737.59,-44.83 4742.86,-40.23"/>
</g>
<!-- Physical Fetus&#45;&gt;Placenta -->
<g id="edge71" class="edge">
<title>Physical Fetus&#45;&gt;Placenta</title>
<path fill="none" stroke="black" d="M4777.47,-71.7C4771.06,-62.05 4760.75,-49.98 4750.33,-39.82"/>
<polygon fill="black" stroke="black" points="4752.49,-37.05 4742.77,-32.82 4747.73,-42.19 4752.49,-37.05"/>
</g>
<!-- Amniotic Fluid -->
<g id="node61" class="node">
<title>Amniotic Fluid</title>
<ellipse fill="none" stroke="black" cx="4841.72" cy="-18" rx="64.3" ry="18"/>
<text text-anchor="middle" x="4841.72" y="-13.8" font-family="Times,serif" font-size="14.00">Amniotic Fluid</text>
</g>
<!-- Physical Fetus&#45;&gt;Amniotic Fluid -->
<g id="edge60" class="edge">
<title>Physical Fetus&#45;&gt;Amniotic Fluid</title>
<path fill="none" stroke="black" d="M4783.97,-71.7C4789.98,-62.66 4799.41,-51.5 4809.14,-41.77"/>
<polygon fill="black" stroke="black" points="4811.77,-44.1 4816.59,-34.67 4806.94,-39.03 4811.77,-44.1"/>
</g>
<!-- Physical Fetus&#45;&gt;Amniotic Fluid -->
<g id="edge66" class="edge">
<title>Physical Fetus&#45;&gt;Amniotic Fluid</title>
<path fill="none" stroke="black" d="M4795.18,-72.41C4802.66,-63.82 4811.95,-53.16 4820.26,-43.63"/>
<polygon fill="black" stroke="black" points="4823.01,-45.79 4826.95,-35.96 4817.74,-41.2 4823.01,-45.79"/>
</g>
<!-- Physical Fetus&#45;&gt;Amniotic Fluid -->
<g id="edge72" class="edge">
<title>Physical Fetus&#45;&gt;Amniotic Fluid</title>
<path fill="none" stroke="black" d="M4805.7,-73.46C4815.09,-64.99 4824.96,-54.29 4832.46,-44.61"/>
<polygon fill="black" stroke="black" points="4835.33,-46.61 4838.37,-36.46 4829.67,-42.5 4835.33,-46.61"/>
</g>
<!-- Umbilical Cord -->
<g id="node62" class="node">
<title>Umbilical Cord</title>
<ellipse fill="none" stroke="black" cx="4989.72" cy="-18" rx="65.24" ry="18"/>
<text text-anchor="middle" x="4989.72" y="-13.8" font-family="Times,serif" font-size="14.00">Umbilical Cord</text>
</g>
<!-- Physical Fetus&#45;&gt;Umbilical Cord -->
<g id="edge61" class="edge">
<title>Physical Fetus&#45;&gt;Umbilical Cord</title>
<path fill="none" stroke="black" d="M4812.84,-74.5C4845.28,-62.61 4895.28,-45.85 4934.06,-33.87"/>
<polygon fill="black" stroke="black" points="4935.12,-37.2 4943.66,-30.93 4933.07,-30.51 4935.12,-37.2"/>
</g>
<!-- Physical Fetus&#45;&gt;Umbilical Cord -->
<g id="edge67" class="edge">
<title>Physical Fetus&#45;&gt;Umbilical Cord</title>
<path fill="none" stroke="black" d="M4819.54,-76C4853.57,-64.6 4903.22,-47.97 4940.12,-35.61"/>
<polygon fill="black" stroke="black" points="4941.31,-38.9 4949.68,-32.41 4939.09,-32.27 4941.31,-38.9"/>
</g>
<!-- Physical Fetus&#45;&gt;Umbilical Cord -->
<g id="edge73" class="edge">
<title>Physical Fetus&#45;&gt;Umbilical Cord</title>
<path fill="none" stroke="black" d="M4825.31,-77.52C4861.6,-66.56 4911.96,-49.89 4947.57,-37.14"/>
<polygon fill="black" stroke="black" points="4948.99,-40.34 4957.2,-33.65 4946.61,-33.76 4948.99,-40.34"/>
</g>
</g>
</svg>
